<svg width="455" height="465" viewBox="0 0 455 465" fill="none" xmlns="http://www.w3.org/2000/svg">
<ellipse cx="232" cy="280" rx="175" ry="169" fill="#0B0B06"/>
<path d="M192.26 5.64774e-07C178.06 5.64774e-07 161.76 3.56 142.76 11.88C219.96 20.48 208.66 103.28 156.86 118.08C91.4603 136.78 25.5503 94.38 58.5203 18.88C18.8503 37.83 16.3503 99.68 45.5903 130.38C115.16 203.18 30.7603 254.28 11.1103 175.98C-28.0687 301.48 34.2003 464.78 232.56 464.78C483.26 464.78 514.56 90.08 361.76 49.74C388.26 92.78 348.66 120.68 336.86 122.88C285.56 132.78 278.76 -0.00999944 192.26 5.64774e-07ZM229.76 118.08C234.26 118.08 239.16 119.18 242.56 120.98L358.46 188.08C365.86 192.18 365.86 198.98 358.46 203.28L242.56 270.18C235.36 274.48 224.06 274.48 216.86 270.18L100.66 203.28C93.3603 198.98 93.3603 192.18 100.66 188.08L216.86 120.98C220.26 119.18 224.76 118.08 229.76 118.08ZM140.76 180.68C119.16 180.28 107.66 195.68 122.56 204.98C132.16 209.78 146.26 209.38 155.26 204.18C164.06 198.88 164.76 190.48 156.76 184.78C152.46 182.28 146.76 180.78 140.76 180.68ZM319.36 180.78C298.56 181.18 288.06 196.28 303.06 205.28C312.66 210.18 326.96 209.88 336.06 204.58C344.96 199.28 345.56 190.68 337.26 184.98C333.06 182.58 327.36 180.98 321.36 180.78H319.36ZM230.36 180.78C223.76 180.68 217.36 182.28 212.66 184.98C202.46 190.58 202.26 200.08 212.06 205.88C221.96 211.68 237.86 211.48 247.16 205.28C262.16 196.28 251.76 180.98 230.36 180.78ZM89.3603 221.78C90.8603 221.88 92.7603 222.28 94.9603 223.38L206.46 287.88C213.66 291.98 219.36 302.08 219.36 310.38V430.08C219.36 438.38 213.66 441.78 206.46 437.68L95.0603 373.28C87.6603 368.98 81.8603 359.08 81.8603 350.68V230.98C81.8603 224.78 84.8603 221.78 89.3603 221.78ZM370.66 221.78C374.86 221.78 377.86 224.78 377.86 230.98V350.68C377.86 359.08 371.86 368.98 364.86 373.28L253.36 437.68C246.16 441.78 240.46 438.38 240.46 430.08V310.38C240.46 302.08 246.16 291.98 253.36 287.88L364.86 223.38C366.96 222.28 369.06 221.88 370.66 221.78ZM185.66 287.28H184.56C179.26 287.68 176.06 292.08 176.06 298.88C175.46 309.28 183.26 322.98 192.96 328.68C202.76 334.28 210.56 329.78 210.16 318.78C210.36 304.58 196.86 287.68 185.66 287.28ZM316.56 309.08C305.36 309.18 291.76 326.28 291.86 340.48C291.96 350.88 299.56 354.88 309.06 349.38C318.46 343.88 326.06 331.08 326.16 320.58C326.16 313.88 322.86 309.48 317.66 309.08H316.56ZM99.6603 331.58C94.2603 331.88 90.9603 336.28 90.9603 343.18C90.4603 353.68 98.2603 367.28 107.96 372.98C117.76 378.48 125.56 373.98 125.16 362.88C125.16 348.38 111.06 331.08 99.6603 331.58Z" fill="#EB524D"/>
</svg>
